<?xml version="1.0" encoding="utf-8"?>
<!-- Generator: Adobe Illustrator 22.1.0, SVG Export Plug-In . SVG Version: 6.00 Build 0)  -->
<svg version="1.1" id="Layer_1" xmlns="http://www.w3.org/2000/svg" xmlns:xlink="http://www.w3.org/1999/xlink" x="0px" y="0px"
	 viewBox="0 0 512 512" style="enable-background:new 0 0 512 512;" xml:space="preserve">
<g>
	<path d="M474.8,346.6c8.2,8.2,8.2,21.6,0,29.8l-70.3,70.3c-13.2,13.2-36,3.9-36-14.9v-35.1h-51.7c-2.9,0-5.7-1.2-7.7-3.4l-62-66.4
		l46.9-50.2l46.4,49.7h28.1v-35.1c0-18.8,22.8-28.1,36-14.9L474.8,346.6z M41.5,185.7h73.8l46.4,49.7l46.9-50.2l-62-66.4
		c-2-2.1-4.8-3.4-7.7-3.4H41.5c-5.8,0-10.5,4.7-10.5,10.5v49.2C31,181,35.7,185.7,41.5,185.7z M368.5,185.7v35.1
		c0,18.9,22.8,28.1,36,14.9l70.3-70.3c8.2-8.2,8.2-21.6,0-29.8l-70.3-70.3c-13.2-13.2-36-3.9-36,14.9v35.1h-51.7
		c-2.9,0-5.7,1.2-7.7,3.4L115.4,326.3H41.5c-5.8,0-10.5,4.7-10.5,10.5v49.2c0,5.8,4.7,10.5,10.5,10.5h97.4c2.9,0,5.7-1.2,7.7-3.4
		l193.7-207.6H368.5z"/>
</g>
</svg>
